<svg aria-hidden="true" style="position: absolute; width: 0; height: 0; overflow: hidden;" version="1.1" xmlns="http://www.w3.org/2000/svg" xmlns:xlink="http://www.w3.org/1999/xlink">
<defs>
<symbol id="icon-elements" viewBox="0 0 35 32">
<path fill="#59b17a" style="fill: var(--color1, #59b17a)" opacity="0.08" d="M5.049 23.16c0.919-2.275 3.509-3.374 5.784-2.455l34.72 14.028-3.329 8.239-34.72-14.028c-2.275-0.919-3.374-3.509-2.455-5.784z"></path>
<path fill="#59b17a" style="fill: var(--color1, #59b17a)" opacity="0.08" d="M17.32 4.119c0.919-2.275 3.509-3.374 5.784-2.455l34.72 14.028-3.329 8.239-34.72-14.028c-2.275-0.919-3.374-3.509-2.455-5.784z"></path>
<path fill="#59b17a" style="fill: var(--color1, #59b17a)" opacity="0.08" d="M1.664 9.832c0.919-2.275 3.509-3.374 5.784-2.455l34.72 14.028-3.329 8.239-34.72-14.028c-2.275-0.919-3.374-3.509-2.455-5.784z"></path>
</symbol>
<symbol id="icon-youtube" viewBox="0 0 32 32">
<path fill="none" stroke="#f7f8fa" style="stroke: var(--color2, #f7f8fa)" stroke-linejoin="miter" stroke-linecap="butt" stroke-miterlimit="4" stroke-width="0.7273" d="M7.273 0.364h17.455c3.816 0 6.909 3.093 6.909 6.909v17.455c0 3.816-3.093 6.909-6.909 6.909h-17.455c-3.816 0-6.909-3.093-6.909-6.909v-17.455c0-3.816 3.093-6.909 6.909-6.909z"></path>
<path fill="#f7f8fa" style="fill: var(--color2, #f7f8fa)" opacity="0.8" d="M21.243 9.636c-0.865-0.051-2.647-0.102-5.345-0.102h-0.356c-2.596 0-4.327 0.051-5.193 0.153-1.171 0.102-1.985 0.407-2.444 0.815-0.407 0.356-0.713 1.018-0.815 1.884-0.051 0.56-0.102 1.731-0.102 3.513v0.255c0 1.68 0.051 2.851 0.153 3.411 0.153 0.815 0.407 1.425 0.916 1.782 0.509 0.407 1.375 0.662 2.596 0.764 0.865 0.051 2.647 0.102 5.345 0.102h0.356c2.596 0 4.327-0.051 5.193-0.153 1.171-0.102 1.985-0.407 2.444-0.815 0.407-0.356 0.713-1.018 0.815-1.884 0.051-0.56 0.102-1.731 0.102-3.513v-0.255c0-1.68-0.051-2.851-0.153-3.411-0.153-0.815-0.407-1.425-0.916-1.782-0.509-0.407-1.375-0.662-2.596-0.764zM19.258 15.898l-5.6 3.36v-6.72l5.6 3.36z"></path>
</symbol>
<symbol id="icon-instagram" viewBox="0 0 32 32">
<path fill="none" stroke="#f7f8fa" style="stroke: var(--color2, #f7f8fa)" stroke-linejoin="miter" stroke-linecap="butt" stroke-miterlimit="4" stroke-width="0.7273" d="M7.273 0.364h17.455c3.816 0 6.909 3.093 6.909 6.909v17.455c0 3.816-3.093 6.909-6.909 6.909h-17.455c-3.816 0-6.909-3.093-6.909-6.909v-17.455c0-3.816 3.093-6.909 6.909-6.909z"></path>
<path fill="#f7f8fa" style="fill: var(--color2, #f7f8fa)" opacity="0.8" d="M24.094 12.663c-0.010-0.684-0.137-1.362-0.379-2.001-0.424-1.092-1.288-1.955-2.382-2.378-0.632-0.238-1.301-0.365-1.978-0.379-0.87-0.039-1.146-0.050-3.355-0.050s-2.492 0-3.356 0.050c-0.676 0.014-1.344 0.142-1.977 0.379-1.094 0.423-1.959 1.286-2.382 2.378-0.238 0.631-0.366 1.299-0.379 1.973-0.039 0.87-0.051 1.145-0.051 3.351s0 2.487 0.051 3.351c0.014 0.676 0.141 1.342 0.379 1.975 0.424 1.091 1.288 1.954 2.383 2.377 0.63 0.246 1.298 0.385 1.977 0.406 0.871 0.039 1.147 0.051 3.356 0.051s2.492 0 3.356-0.051c0.676-0.014 1.344-0.141 1.978-0.378 1.094-0.424 1.958-1.287 2.382-2.378 0.238-0.632 0.366-1.299 0.379-1.975 0.039-0.869 0.051-1.144 0.051-3.351-0.002-2.205-0.002-2.485-0.052-3.35zM15.994 20.156c-2.31 0-4.182-1.869-4.182-4.175s1.872-4.175 4.182-4.175c2.309 0 4.182 1.869 4.182 4.175s-1.874 4.175-4.182 4.175zM20.343 12.625c-0.54 0-0.975-0.435-0.975-0.974s0.435-0.974 0.975-0.974c0.538 0 0.974 0.435 0.974 0.974s-0.436 0.974-0.974 0.974z"></path>
<path fill="#f7f8fa" style="fill: var(--color2, #f7f8fa)" opacity="0.8" d="M15.995 18.53c1.407 0 2.548-1.141 2.548-2.548s-1.141-2.548-2.548-2.548c-1.407 0-2.548 1.141-2.548 2.548s1.141 2.548 2.548 2.548z"></path>
</symbol>
<symbol id="icon-map" viewBox="0 0 32 32">
<path fill="none" stroke="#59b17a" style="stroke: var(--color1, #59b17a)" stroke-linejoin="round" stroke-linecap="round" stroke-miterlimit="4" stroke-width="2.6667" d="M28 13.333c0 9.333-12 17.333-12 17.333s-12-8-12-17.333c0-3.183 1.264-6.235 3.515-8.485s5.303-3.515 8.485-3.515c3.183 0 6.235 1.264 8.485 3.515s3.515 5.303 3.515 8.485z"></path>
<path fill="none" stroke="#59b17a" style="stroke: var(--color1, #59b17a)" stroke-linejoin="round" stroke-linecap="round" stroke-miterlimit="4" stroke-width="2.6667" d="M16 17.333c2.209 0 4-1.791 4-4s-1.791-4-4-4c-2.209 0-4 1.791-4 4s1.791 4 4 4z"></path>
</symbol>
<symbol id="icon-phone" viewBox="0 0 32 32">
<path fill="none" stroke="#59b17a" style="stroke: var(--color1, #59b17a)" stroke-linejoin="round" stroke-linecap="round" stroke-miterlimit="4" stroke-width="2.8235" d="M29.489 22.475v4.235c0.002 0.393-0.079 0.782-0.236 1.143s-0.389 0.684-0.678 0.949c-0.29 0.266-0.632 0.468-1.004 0.594s-0.767 0.173-1.159 0.137c-4.344-0.472-8.517-1.957-12.184-4.334-3.411-2.168-6.303-5.060-8.471-8.471-2.386-3.683-3.871-7.876-4.334-12.24-0.035-0.39 0.011-0.784 0.136-1.155s0.326-0.713 0.591-1.002c0.264-0.289 0.586-0.521 0.945-0.679s0.746-0.24 1.138-0.241h4.235c0.685-0.007 1.349 0.236 1.869 0.683s0.859 1.067 0.955 1.746c0.179 1.355 0.51 2.686 0.988 3.967 0.19 0.505 0.231 1.054 0.118 1.582s-0.374 1.013-0.754 1.396l-1.793 1.793c2.010 3.534 4.936 6.461 8.471 8.471l1.793-1.793c0.384-0.38 0.869-0.641 1.396-0.754s1.077-0.071 1.582 0.118c1.281 0.478 2.612 0.809 3.967 0.988 0.686 0.097 1.312 0.442 1.76 0.971s0.686 1.203 0.668 1.895z"></path>
</symbol>
<symbol id="icon-facebook" viewBox="0 0 32 32">
<path fill="none" stroke="#f7f8fa" style="stroke: var(--color2, #f7f8fa)" stroke-linejoin="miter" stroke-linecap="butt" stroke-miterlimit="4" stroke-width="0.7273" d="M7.273 0.364h17.455c3.816 0 6.909 3.093 6.909 6.909v17.455c0 3.816-3.093 6.909-6.909 6.909h-17.455c-3.816 0-6.909-3.093-6.909-6.909v-17.455c0-3.816 3.093-6.909 6.909-6.909z"></path>
<path fill="#f7f8fa" style="fill: var(--color2, #f7f8fa)" opacity="0.8" d="M18.24 8.771c0.153 0 0.305 0 0.611 0v2.291c-0.153 0-0.458 0-0.764 0s-0.611 0-0.764 0.153c-0.153 0.153-0.153 0.305-0.153 0.662 0 0.305 0 0.509 0 0.815h1.68v1.935h-1.68v8.4h-2.596v-8.451h-1.375v-1.935h1.375v-0.662c0-1.12 0.153-1.935 0.458-2.291 0.458-0.662 1.375-0.967 2.749-0.967 0.153 0.051 0.305 0.051 0.458 0.051z"></path>
</symbol>
<svg width="18" id="upload-elements" height="18" viewBox="0 0 18 18" fill="none" xmlns="http://www.w3.org/2000/svg">
<path d="M15.807 10.6314L7.36953 2.19385C5.96328 0.731353 3.65703 0.731353 2.19453 2.1376C0.732031 3.54385 0.732031 5.90635 2.19453 7.3126L2.25078 7.36885L3.82578 9.0001L4.61328 8.2126L2.98203 6.58135C2.02578 5.6251 2.02578 3.99385 2.98203 3.0376C3.93828 2.08135 5.56953 2.0251 6.52578 2.98135L6.58203 3.0376L14.9633 11.4189C15.9758 12.3751 15.9758 14.0064 15.0195 14.9626C14.0633 15.9751 12.432 15.9751 11.4758 15.0189L11.4195 14.9626L7.25703 10.8001C6.69453 10.2376 6.75078 9.3376 7.25703 8.83135C7.5267 8.58708 7.87755 8.45179 8.24141 8.45179C8.60526 8.45179 8.95612 8.58708 9.22578 8.83135L11.532 11.1376L12.3195 10.3501L9.95703 7.9876C9.71757 7.76114 9.43564 7.58431 9.12752 7.46732C8.81939 7.35032 8.49115 7.29547 8.16173 7.30593C7.83231 7.31639 7.50821 7.39195 7.20812 7.52825C6.90804 7.66455 6.6379 7.85891 6.41328 8.1001C5.51328 9.05635 5.51328 10.5751 6.41328 11.5876L10.632 15.8064C12.0383 17.2689 14.3445 17.2689 15.807 15.8626C17.2695 14.4564 17.2695 12.0939 15.807 10.6314C15.807 10.6876 15.807 10.6314 15.807 10.6314Z" fill="#59B17A"/>
</svg>

<svg aria-hidden="true" style="position: absolute; width: 0; height: 0; overflow: hidden;" version="1.1" xmlns="http://www.w3.org/2000/svg" xmlns:xlink="http://www.w3.org/1999/xlink">
<defs>
<symbol id="icon-users" viewBox="0 0 32 32">
<path stroke-linejoin="round" stroke-linecap="round" stroke-miterlimit="4" stroke-width="2.4" d="M28 26.667c0-2.323-2.227-4.297-5.333-5.031M20 26.667c0-2.947-3.581-5.333-8-5.333s-8 2.387-8 5.333M20 17.334c1.415 0 2.771-0.562 3.771-1.562s1.562-2.357 1.562-3.771-0.562-2.771-1.562-3.771c-1-1-2.357-1.562-3.771-1.562M12 17.334c-1.415 0-2.771-0.562-3.771-1.562s-1.562-2.357-1.562-3.771 0.562-2.771 1.562-3.771c1-1 2.357-1.562 3.771-1.562s2.771 0.562 3.771 1.562c1 1 1.562 2.357 1.562 3.771s-0.562 2.771-1.562 3.771c-1 1-2.357 1.562-3.771 1.562z"></path>
</symbol>
<symbol id="icon-money" viewBox="0 0 32 32">
<path stroke-linejoin="round" stroke-linecap="round" stroke-miterlimit="4" stroke-width="2.4" d="M20.573 17.143c5.681 0 10.286-2.047 10.286-4.571s-4.605-4.571-10.286-4.571c-5.681 0-10.286 2.047-10.286 4.571s4.605 4.571 10.286 4.571z"></path>
<path stroke-linejoin="round" stroke-linecap="round" stroke-miterlimit="4" stroke-width="2.4" d="M10.287 12.572v13.714c0 2.514 4.571 4.571 10.286 4.571s10.286-2.057 10.286-4.571v-13.714"></path>
<path stroke-linejoin="round" stroke-linecap="round" stroke-miterlimit="4" stroke-width="2.4" d="M30.858 19.429c0 2.514-4.572 4.571-10.286 4.571s-10.286-2.057-10.286-4.571M20.344 3.429c-2.671-1.648-5.78-2.445-8.914-2.286-5.691 0-10.286 2.057-10.286 4.571 0 1.349 1.326 2.56 3.429 3.429"></path>
<path stroke-linejoin="round" stroke-linecap="round" stroke-miterlimit="4" stroke-width="2.4" d="M4.572 22.859c-2.103-0.869-3.429-2.080-3.429-3.429v-13.714"></path>
<path stroke-linejoin="round" stroke-linecap="round" stroke-miterlimit="4" stroke-width="2.4" d="M4.572 16c-2.103-0.869-3.429-2.080-3.429-3.429"></path>
</symbol>
</defs>
</svg>

